PathFileType	4	(X/Y/Z)	/Users/itak/Documents/Research/Walk-IL/dataset/trc/00369_00011.trc
DataRate	CameraRate	NumFrames	NumMarkers	Units	OrigDataRate	OrigDataStartFrame	OrigNumFrames
100.000000	100.000000	4	54	mm	100.000000	135	541
Frame#	Time	RPSI			LPSI			L3			STRN			T10			C7			CLAV			RBAK			LBAK			LSHO			LUPA			LAEL			LAOL			LWTS			LWPS			LFRA			LIFD			LHPS			LHTS			RSHO			RUPA			RAEL			RAOL			RWTS			RWPS			RFRA			RIFD			RHTS			RHPS			RBHD			LFHD			RFHD			LBHD			LHIP			RHIP			RASI			LASI			LKNE			LTHI			LANK			LTIP			LTOE			LMT1			LMT5			LHEE			RKNE			RTHI			RANK			RTIP			RTOE			RMT1			RMT5			RHEE			*53			
		X1	Y1	Z1	X2	Y2	Z2	X3	Y3	Z3	X4	Y4	Z4	X5	Y5	Z5	X6	Y6	Z6	X7	Y7	Z7	X8	Y8	Z8	X9	Y9	Z9	X10	Y10	Z10	X11	Y11	Z11	X12	Y12	Z12	X13	Y13	Z13	X14	Y14	Z14	X15	Y15	Z15	X16	Y16	Z16	X17	Y17	Z17	X18	Y18	Z18	X19	Y19	Z19	X20	Y20	Z20	X21	Y21	Z21	X22	Y22	Z22	X23	Y23	Z23	X24	Y24	Z24	X25	Y25	Z25	X26	Y26	Z26	X27	Y27	Z27	X28	Y28	Z28	X29	Y29	Z29	X30	Y30	Z30	X31	Y31	Z31	X32	Y32	Z32	X33	Y33	Z33	X34	Y34	Z34	X35	Y35	Z35	X36	Y36	Z36	X37	Y37	Z37	X38	Y38	Z38	X39	Y39	Z39	X40	Y40	Z40	X41	Y41	Z41	X42	Y42	Z42	X43	Y43	Z43	X44	Y44	Z44	X45	Y45	Z45	X46	Y46	Z46	X47	Y47	Z47	X48	Y48	Z48	X49	Y49	Z49	X50	Y50	Z50	X51	Y51	Z51	X52	Y52	Z52	X53	Y53	Z53	X54	Y54	Z54	

136	1.35	-1344.0224609375	984.3294677734375	-59.36780166625977	-1342.8994140625	983.9618530273438	-188.6272125244141	-1342.1904296875	1035.531982421875	-120.9487228393555	-1121.377319335938	1229.786865234375	-129.7072143554688	-1357.510375976562	1154.078857421875	-135.0014038085938	-1325.715698242188	1403.988647460938	-157.4350128173828	-1167.97412109375	1354.377807617188	-139.9659729003906	-1369.03759765625	1264.717529296875	-89.25551605224609	-1330.149047851562	1363.380859375	-258.0282592773438	-1241.773071289062	1382.667724609375	-309.7952880859375	-1251.799072265625	1258.239379882812	-372.8223571777344	-1227.6435546875	1054.086059570312	-372.7716369628906	-1293.737060546875	1041.58935546875	-321.4872741699219	-1130.073852539062	817.143798828125	-307.5483093261719	-1164.638061523438	802.1849975585938	-366.1749267578125	-1208.6513671875	950.3535766601562	-372.6964721679688	-1121.536865234375	655.2015991210938	-293.3073120117188	-1166.49072265625	732.1199340820312	-356.4879455566406	-1109.789916992188	741.9509887695312	-316.9684753417969	-1279.441650390625	1399.090942382812	10.12785053253174	-1291.848510742188	1334.961181640625	73.8175048828125	-1277.524047851562	1068.253295898438	115.6750335693359	-1313.89013671875	1059.713134765625	28.7324333190918	-1159.853149414062	842.3013916015625	66.00559997558594	-1193.066162109375	827.3616333007812	135.2847442626953	-1249.886962890625	1001.266784667969	125.5642776489258	-1141.87451171875	669.3007202148438	83.6552734375	-1128.516967773438	741.3488159179688	82.79907989501953	-1176.800659179688	744.1305541992188	133.1065063476562	-1295.41357421875	1613.77392578125	-73.38961029052734	-1116.070556640625	1628.021362304688	-179.5562896728516	-1133.263549804688	1628.548583984375	-79.6043701171875	-1297.787963867188	1608.481567382812	-217.7229156494141	-1258.056396484375	925.7201538085938	-292.1457214355469	-1267.078979492188	930.0088500976562	50.94565200805664	-1159.78369140625	956.6128540039062	9.48665714263916	-1134.8046875	950.0401611328125	-228.4065399169922	-1226.9794921875	465.5641479492188	-275.2115478515625	-1218.066162109375	604.5867309570312	-284.0417175292969	-1318.212158203125	48.71987152099609	-261.9582214355469	-1273.560424804688	250.7946472167969	-279.8345031738281	-1112.7470703125	46.31746292114258	-198.5519866943359	-1180.785888671875	37.44098281860352	-158.4784851074219	-1191.650268554688	44.54064559936523	-272.5779724121094	-1351.847045898438	44.73032379150391	-194.6274719238281	-1250.615966796875	464.1484069824219	49.81707000732422	-1183.508178710938	706.2614135742188	39.30198669433594	-1311.171508789062	51.99451446533203	42.10494613647461	-1247.419067382812	347.5346984863281	43.94833755493164	-1118.646362304688	49.10031509399414	-14.06082153320312	-1175.250610351562	42.98942947387695	-53.19033432006836	-1207.755493164062	41.47545623779297	59.91302490234375	-1362.164306640625	50.21884155273438	-4.17928409576416	nan	nan	nan	
137	1.36	-1343.171508789062	984.4794311523438	-59.79193878173828	-1342.148071289062	984.12890625	-189.0438385009766	-1341.297729492188	1035.609130859375	-121.3860931396484	-1120.642700195312	1229.690307617188	-130.2619171142578	-1356.590209960938	1154.024169921875	-135.5637359619141	-1324.996826171875	1403.946166992188	-157.9977874755859	-1167.192260742188	1354.372802734375	-140.4258575439453	-1368.296020507812	1264.652099609375	-89.86022186279297	-1329.345825195312	1363.358520507812	-258.5941772460938	-1241.018310546875	1382.638549804688	-310.3429260253906	-1250.939208984375	1258.1962890625	-373.3289184570312	-1226.788818359375	1054.067016601562	-373.1977844238281	-1292.893432617188	1041.573120117188	-321.9301147460938	-1129.215942382812	817.1089477539062	-307.8307189941406	-1163.66796875	802.1329956054688	-366.4557189941406	-1207.784301757812	950.3111572265625	-373.0777282714844	-1120.7353515625	655.1325073242188	-293.5577392578125	-1165.5771484375	732.1110229492188	-356.7770385742188	-1108.9521484375	742.1359252929688	-317.3934326171875	-1278.8193359375	1399.046264648438	9.563436508178711	-1291.284423828125	1334.9677734375	73.26885223388672	-1276.968994140625	1068.2353515625	115.3207092285156	-1313.142822265625	1059.668090820312	28.19171142578125	-1159.340209960938	842.427978515625	66.31541442871094	-1192.445068359375	827.3384399414062	135.0861968994141	-1249.306762695312	1001.277893066406	125.2690200805664	-1141.067260742188	669.3003540039062	83.45792388916016	-1128.037841796875	741.3286743164062	82.68367004394531	-1176.119506835938	744.1142578125	132.7995758056641	-1294.855590820312	1613.763061523438	-73.88117218017578	-1115.26220703125	1627.99609375	-179.68994140625	-1132.7138671875	1628.409545898438	-79.73438262939453	-1296.909912109375	1608.638305664062	-218.2357635498047	-1257.390625	925.7730712890625	-292.6084594726562	-1266.176879882812	929.9959106445312	50.49518585205078	-1158.969360351562	956.559326171875	8.919631958007812	-1134.11865234375	949.9486694335938	-228.9339141845703	-1226.6640625	465.4918823242188	-275.4813537597656	-1217.818725585938	604.5835571289062	-284.4566345214844	-1318.195068359375	48.74002075195312	-261.9501647949219	-1273.448364257812	250.7599639892578	-279.9772033691406	-1112.748901367188	46.32445526123047	-198.5485534667969	-1180.785522460938	37.44353485107422	-158.4766998291016	-1191.641723632812	44.54635620117188	-272.5735778808594	-1351.845458984375	44.73563385009766	-194.6200866699219	-1250.47216796875	464.1271362304688	49.50489807128906	-1182.924926757812	706.1757202148438	38.9152717590332	-1311.175415039062	51.98544311523438	42.12458419799805	-1247.366333007812	347.5640563964844	43.81705474853516	-1118.65234375	49.10187530517578	-14.06383800506592	-1175.278930664062	42.9906120300293	-53.20133209228516	-1207.76708984375	41.45902252197266	59.92021179199219	-1362.181274414062	50.22116851806641	-4.153831481933594	nan	nan	nan	
138	1.37	-1342.296752929688	984.6290893554688	-60.24951934814453	-1341.393798828125	984.2904663085938	-189.5041961669922	-1340.396118164062	1035.68115234375	-121.8651428222656	-1119.889526367188	1229.605102539062	-130.8466033935547	-1355.652465820312	1153.96484375	-136.15869140625	-1324.252075195312	1403.901489257812	-158.5784454345703	-1166.421752929688	1354.374145507812	-140.9144897460938	-1367.541748046875	1264.580810546875	-90.4964599609375	-1328.526245117188	1363.332763671875	-259.1828918457031	-1240.275756835938	1382.6044921875	-310.9304809570312	-1250.075805664062	1258.145385742188	-373.8634338378906	-1225.927856445312	1054.043212890625	-373.6521911621094	-1292.050415039062	1041.549438476562	-322.4027709960938	-1128.359375	817.0889282226562	-308.1539611816406	-1162.7158203125	802.0902099609375	-366.7785949707031	-1206.92333984375	950.2637329101562	-373.4928894042969	-1119.913330078125	655.0617065429688	-293.8302917480469	-1164.6455078125	732.1011352539062	-357.0903625488281	-1108.069091796875	742.2783203125	-317.8488464355469	-1278.154541015625	1398.996826171875	8.982855796813965	-1290.6865234375	1334.959228515625	72.69261932373047	-1276.373901367188	1068.21533203125	114.9411544799805	-1312.365600585938	1059.593139648438	27.60797882080078	-1158.71533203125	842.531494140625	66.53246307373047	-1191.805541992188	827.289794921875	134.8702392578125	-1248.694580078125	1001.275817871094	124.9177169799805	-1140.2138671875	669.24462890625	83.26929473876953	-1127.504638671875	741.302734375	82.57131958007812	-1175.436157226562	744.0575561523438	132.5243988037109	-1294.276000976562	1613.734130859375	-74.39283752441406	-1114.422119140625	1627.98095703125	-179.8175506591797	-1132.11328125	1628.235473632812	-79.88803863525391	-1295.98193359375	1608.79345703125	-218.7636108398438	-1256.7021484375	925.8239135742188	-293.1058959960938	-1265.239868164062	929.97802734375	50.00994110107422	-1158.1328125	956.4783935546875	8.298892021179199	-1133.43994140625	949.8196411132812	-229.5189208984375	-1226.348266601562	465.4189758300781	-275.7679138183594	-1217.577392578125	604.580810546875	-284.9049682617188	-1318.17822265625	48.76057815551758	-261.9367980957031	-1273.3173828125	250.7156372070312	-280.1177062988281	-1112.750122070312	46.33459854125977	-198.5442504882812	-1180.784057617188	37.44610595703125	-158.4761505126953	-1191.630859375	44.55709838867188	-272.5674743652344	-1351.846435546875	44.74102783203125	-194.6093292236328	-1250.353149414062	464.1095275878906	49.17888259887695	-1182.346801757812	706.0947265625	38.51778793334961	-1311.180541992188	51.97959899902344	42.13935852050781	-1247.307861328125	347.5998840332031	43.64497756958008	-1118.660278320312	49.10386276245117	-14.07041168212891	-1175.310791015625	42.99001693725586	-53.21643829345703	-1207.77880859375	41.45120620727539	59.92679977416992	-1362.203369140625	50.22430419921875	-4.134994029998779	nan	nan	nan	
139	1.38	-1341.398193359375	984.7785034179688	-60.74338912963867	-1340.635498046875	984.4473266601562	-190.0108642578125	-1339.490478515625	1035.746704101562	-122.3908004760742	-1119.127563476562	1229.53857421875	-131.45361328125	-1354.696044921875	1153.900024414062	-136.785400390625	-1323.486328125	1403.855102539062	-159.1799926757812	-1165.661865234375	1354.379638671875	-141.4344177246094	-1366.768798828125	1264.502563476562	-91.16168975830078	-1327.692626953125	1363.302734375	-259.7960815429688	-1239.537109375	1382.568237304688	-311.5541381835938	-1249.213134765625	1258.090454101562	-374.4282531738281	-1225.064086914062	1054.013671875	-374.1394653320312	-1291.209228515625	1041.520751953125	-322.9077453613281	-1127.4677734375	817.1091918945312	-308.53369140625	-1161.782592773438	802.0592041015625	-367.1490783691406	-1206.064575195312	950.2140502929688	-373.9438171386719	-1119.075317382812	654.9898681640625	-294.1287231445312	-1163.697998046875	732.090087890625	-357.4309387207031	-1107.124755859375	742.3720703125	-318.3235473632812	-1277.44482421875	1398.9423828125	8.387340545654297	-1290.048828125	1334.93115234375	72.08798217773438	-1275.731323242188	1068.191772460938	114.5246353149414	-1311.557495117188	1059.491455078125	26.98487663269043	-1157.979614257812	842.5921630859375	66.64156341552734	-1191.159057617188	827.221923828125	134.6428985595703	-1248.052124023438	1001.258544921875	124.5034255981445	-1139.334106445312	669.1388549804688	83.10162353515625	-1126.894165039062	741.2592163085938	82.46320343017578	-1174.758056640625	743.9606323242188	132.2869873046875	-1293.671142578125	1613.68798828125	-74.92594146728516	-1113.547241210938	1627.966552734375	-179.9404144287109	-1131.452880859375	1628.034057617188	-80.06495666503906	-1295.004150390625	1608.942260742188	-219.3088836669922	-1255.992553710938	925.8734741210938	-293.6434936523438	-1264.28173828125	929.9553833007812	49.47869873046875	-1157.271728515625	956.3569946289062	7.632027149200439	-1132.770874023438	949.6730346679688	-230.1681823730469	-1226.018920898438	465.3399658203125	-276.0720520019531	-1217.320190429688	604.5699462890625	-285.3791198730469	-1318.161499023438	48.7801513671875	-261.9177856445312	-1273.159301757812	250.6613922119141	-280.25439453125	-1112.75	46.34927368164062	-198.5401763916016	-1180.783325195312	37.44900512695312	-158.4771575927734	-1191.618530273438	44.57235717773438	-272.5597229003906	-1351.850219726562	44.74747848510742	-194.5952606201172	-1250.248046875	464.0957336425781	48.84246444702148	-1181.766479492188	706.0113525390625	38.11005401611328	-1311.186401367188	51.97681427001953	42.14988327026367	-1247.239990234375	347.6378479003906	43.43002700805664	-1118.669555664062	49.10567474365234	-14.08020973205566	-1175.348388671875	42.99029922485352	-53.23747253417969	-1207.790161132812	41.45071792602539	59.93293762207031	-1362.232299804688	50.22819900512695	-4.123076438903809	nan	nan	nan	
